<?xml version="1.0" encoding="utf-8"?>
<!-- Generator: Adobe Illustrator 26.3.1, SVG Export Plug-In . SVG Version: 6.00 Build 0)  -->
<svg version="1.1" id="Capa_1" xmlns="http://www.w3.org/2000/svg" xmlns:xlink="http://www.w3.org/1999/xlink" x="0px" y="0px"
	 viewBox="0 0 2000 2000" style="enable-background:new 0 0 2000 2000;" xml:space="preserve">
<style type="text/css">
	.st0{fill:#020203;}
	.st1{fill:#010202;}
</style>
<g>
	<path d="M793-785.4c-26.6,0-48.1,21.5-48.1,48.1v107.7c0,58.6-47.5,106-106,106h-53.7h-40.7h-85.9h-29.1h-85.9h-12.7h-28h-53.7
		c-58.6,0-106-47.5-106-106v-107.7c0-26.6-21.5-48.1-48.1-48.1c-26.6,0-48.1,21.5-48.1,48.1c0,0,0,0,0,0v115.3
		c0,107.5,87.1,194.6,194.6,194.6h61.4h28h12.7h86.8h27.4h86.8h40.7h61.4c107.5,0,194.6-87.1,194.6-194.6v-115.3c0,0,0,0,0,0
		C841.2-763.9,819.6-785.4,793-785.4z"/>
	<path d="M335.6-945l60-60c0,0,0.1,0,0.1,0v276.6c0,26.6,21.5,48.1,48.1,48.1c26.6,0,48.1-21.5,48.1-48.1v-276.6
		c0-0.1,0.1-0.1,0.1,0l59.4,59.4c19.2,19.2,50.6,19.5,69.4-0.1c18.1-18.8,17.9-48.8-0.7-67.4l-108.2-108.2l-68-68c0,0-0.1,0-0.1,0
		l-68,68l-107.6,107.6c-19.2,19.2-19.5,50.6,0.1,69.4C287.1-926.2,317.1-926.4,335.6-945z"/>
</g>
<path d="M-842.5-2349.4c0,1.9,0,3.7,0,5.6c0,358.1-290.3,648.5-648.5,648.5c-0.6,0-1.3,0-1.9,0v112.4c0.6,0,1.3,0,1.9,0
	c420.2,0,760.9-340.7,760.9-760.9c0-1.9,0-3.7,0-5.6H-842.5z"/>
<path d="M-2685.2-2235.1c1.9,0,3.7,0,5.6,0c358.1,0,648.5,290.3,648.5,648.5c0,0.6,0,1.3,0,1.9h112.4c0-0.6,0-1.3,0-1.9
	c0-420.2-340.7-760.9-760.9-760.9c-1.9,0-3.7,0-5.6,0V-2235.1z"/>
<path d="M-911.9-1119.8L-1247.7-784l0,0v0c-18.8,18.8-18.8,49.3,0,68.1l335.9,335.9l0.4-0.4c18.8,18.8,49.3,18.8,68.1,0
	s18.8-49.3,0-68.1c-1.8-1.8-3.7-3.4-5.7-4.9l-296.5-296.5l301.8-301.8c18.8-18.8,18.8-49.3,0-68.1S-893.1-1138.6-911.9-1119.8z"/>
<path d="M-1934.2-448.5c-1.8-1.8-3.7-3.4-5.7-4.9l-296.5-296.5l301.8-301.8c18.8-18.8,18.8-49.3,0-68.1s-49.3-18.8-68.1,0
	L-2304.5-818l-301.8-301.8c-18.8-18.8-49.3-18.8-68.1,0c-18.8,18.8-18.8,49.3,0,68.1l301.8,301.8L-2669-453.4
	c-2,1.5-3.9,3.1-5.7,4.9c-18.8,18.8-18.8,49.3,0,68.1c18.8,18.8,49.3,18.8,68.1,0l0.4,0.4l301.8-301.8l301.8,301.8l0.4-0.4
	c18.8,18.8,49.3,18.8,68.1,0S-1915.4-429.7-1934.2-448.5z"/>
<path d="M-2014.6,657.5l-472.7,272.9c-71.3,41.2-160.5-10.3-160.5-92.7V291.9c0-82.4,89.2-133.8,160.5-92.7l472.7,272.9
	C-1943.3,513.4-1943.3,616.3-2014.6,657.5z"/>
<g>
	<path d="M-1198,250.4h-123.4c-44.8,0-81,36.3-81,81v600.7c0,44.8,36.3,81,81,81h123.4c44.8,0,81-36.3,81-81V331.5
		C-1116.9,286.7-1153.2,250.4-1198,250.4z"/>
	<path d="M-769.8,250.4h-123.4c-44.8,0-81,36.3-81,81v600.7c0,44.8,36.3,81,81,81h123.4c44.8,0,81-36.3,81-81V331.5
		C-688.8,286.7-725.1,250.4-769.8,250.4z"/>
</g>
<path d="M-2080,1497.2h-448.8c-86.3,0-156.3,70-156.3,156.3v448.8c0,86.3,70,156.3,156.3,156.3h448.8c86.3,0,156.3-70,156.3-156.3
	v-448.8C-1923.7,1567.2-1993.7,1497.2-2080,1497.2z M-2054.3,1799.5l-174.6,174.6c-14.6,14.6-38.2,14.6-52.7,0
	c-2.1-2.1-3.9-4.4-5.4-6.8l0,0l-71.7-101.5l-143.3,143.3c-14.6,14.6-38.2,14.6-52.7,0c-14.6-14.6-14.6-38.2,0-52.7l174.6-174.6
	c0.3-0.3,0.7-0.6,1-0.9c0.4-0.4,0.9-0.8,1.3-1.2c0.6-0.5,1.2-1,1.9-1.5c0.2-0.2,0.5-0.4,0.7-0.6c0.1-0.1,0.2-0.1,0.3-0.2
	c0.7-0.5,1.5-1,2.2-1.4c0.3-0.2,0.6-0.4,1-0.6c0.7-0.4,1.5-0.8,2.3-1.1c0.4-0.2,0.7-0.4,1.1-0.5c0.7-0.3,1.4-0.6,2.2-0.8
	c0.4-0.2,0.9-0.3,1.3-0.5c0.7-0.2,1.4-0.4,2-0.6c0.5-0.1,1-0.3,1.5-0.4c0.7-0.1,1.3-0.2,2-0.3c0.5-0.1,1-0.2,1.6-0.2
	c0.7-0.1,1.4-0.1,2-0.1c0.5,0,1-0.1,1.5-0.1c0.7,0,1.5,0,2.2,0.1c0.4,0,0.9,0,1.3,0.1c0.8,0.1,1.6,0.2,2.4,0.3
	c0.4,0.1,0.8,0.1,1.1,0.2c0.8,0.1,1.7,0.3,2.5,0.5c0.3,0.1,0.7,0.2,1,0.2c0.8,0.2,1.6,0.5,2.4,0.8c0.3,0.1,0.7,0.2,1,0.4
	c0.7,0.3,1.5,0.6,2.2,1c0.4,0.2,0.8,0.3,1.1,0.5c0.6,0.3,1.3,0.7,1.9,1.1c0.4,0.3,0.9,0.5,1.3,0.8c0.5,0.3,1.1,0.7,1.6,1.1
	c0.5,0.4,1,0.7,1.5,1.1c0.5,0.4,0.9,0.8,1.4,1.1c0.5,0.4,1,0.9,1.5,1.3c0.1,0.1,0.3,0.3,0.4,0.4c0.3,0.3,0.6,0.7,0.9,1
	c0.4,0.4,0.8,0.9,1.2,1.3c0.5,0.6,1,1.2,1.4,1.8c0.2,0.3,0.4,0.5,0.6,0.8l73,103.4l143.2-143.2c14.6-14.6,38.2-14.6,52.7,0
	C-2039.7,1761.4-2039.7,1785-2054.3,1799.5z"/>
<g>
	<path d="M-675.8,2186.5l0.1-0.1l-2.6-2.6L-818,2044.1c44.2-57.3,70.6-129.1,70.6-207.1c0-187.3-151.8-339.1-339.1-339.1
		s-339.1,151.8-339.1,339.1s151.8,339.1,339.1,339.1c78,0,149.8-26.3,207.1-70.6l139.7,139.7l2.6,2.6l0.1-0.1
		c17.1,14.5,42.7,13.6,58.8-2.5C-662.1,2229.2-661.3,2203.6-675.8,2186.5z M-1086.5,2089.2c-139.3,0-252.2-112.9-252.2-252.2
		s112.9-252.2,252.2-252.2s252.2,112.9,252.2,252.2c0,53.9-16.9,103.9-45.8,144.9l0,0c-0.9,1.3-1.9,2.7-2.9,4
		c-0.1,0.2-0.3,0.4-0.4,0.6c-0.9,1.2-1.9,2.5-2.8,3.7c-0.2,0.3-0.4,0.5-0.6,0.8c-0.9,1.2-1.9,2.4-2.8,3.6c-0.2,0.3-0.4,0.6-0.7,0.8
		c-1,1.2-1.9,2.3-2.9,3.5c-0.2,0.2-0.4,0.5-0.6,0.7c-1,1.2-2,2.4-3.1,3.5c-0.1,0.2-0.3,0.3-0.4,0.5c-7,8-14.5,15.5-22.5,22.5
		c-0.2,0.1-0.3,0.3-0.5,0.4c-1.2,1-2.4,2-3.5,3c-0.2,0.2-0.5,0.4-0.7,0.6c-1.2,1-2.3,1.9-3.5,2.9c-0.3,0.2-0.6,0.4-0.8,0.7
		c-1.2,0.9-2.4,1.9-3.6,2.8c-0.3,0.2-0.5,0.4-0.8,0.6c-1.2,0.9-2.5,1.9-3.7,2.8c-0.2,0.1-0.4,0.3-0.6,0.4c-1.3,1-2.7,1.9-4,2.9l0,0
		C-982.6,2072.3-1032.6,2089.2-1086.5,2089.2z"/>
</g>
<g>
	<path class="st0" d="M1639.9,665.8h-412.7c-27.5,0-49.9,22.3-49.9,49.9v237.4c0,22.2-26.9,33.3-42.6,17.6L844.5,680.5
		c-9.4-9.4-22.1-14.6-35.3-14.6h-449c-27.5,0-49.8,22.3-49.8,49.8v568.7c0,27.5,22.3,49.9,49.8,49.9H594c27.5,0,49.8-22.3,49.8-49.9
		V1046c0-21.9,26.5-32.8,41.9-17.4l291,291c9.4,9.4,22.1,14.6,35.3,14.6h101.7c27.5,0,49.8-22.3,49.8-49.8V1046
		c0-21.9,26.5-32.8,41.9-17.4l291,291c9.4,9.4,22,14.6,35.2,14.6h108c27.5,0,49.8-22.3,49.8-49.8V715.7
		C1689.7,688.1,1667.4,665.8,1639.9,665.8z"/>
</g>
<path class="st1" d="M481.1-1689.2c-12.1,0-24.3-2.9-35.5-8.8l-157.9-83l-157.9,83c-25.8,13.6-56.6,11.4-80.2-5.8
	c-23.6-17.2-35.2-45.7-30.3-74.5l30.2-175.9l-127.8-124.5c-20.9-20.4-28.3-50.3-19.3-78.1c9-27.8,32.6-47.6,61.5-51.8l176.6-25.7
	l79-160c12.9-26.2,39.1-42.4,68.3-42.4s55.4,16.3,68.3,42.4l79,160l176.6,25.7c28.9,4.2,52.4,24.1,61.5,51.8
	c9,27.8,1.6,57.7-19.3,78.1l-127.8,124.5l30.2,175.9c4.9,28.8-6.7,57.3-30.3,74.5C512.4-1694.2,496.8-1689.2,481.1-1689.2z
	 M-6.2-2127.1l146.9,143.2l-34.7,202.2l181.6-95.5l181.6,95.5l-34.7-202.2l146.9-143.2l-203-29.5l-90.8-184l-90.8,184L-6.2-2127.1z"
	/>
<path class="st1" d="M1701.3-2171.6c-9-27.8-32.6-47.6-61.5-51.8l-176.6-25.7l-79-160c-12.9-26.2-39.1-42.4-68.3-42.4
	s-55.4,16.3-68.3,42.4l-79,160l-176.6,25.7c-28.9,4.2-52.4,24.1-61.5,51.8c-9,27.8-1.6,57.7,19.3,78.1l127.8,124.5l-30.2,175.9
	c-4.9,28.8,6.7,57.3,30.3,74.5c23.6,17.2,54.3,19.4,80.2,5.8l157.9-83l157.9,83c11.2,5.9,23.4,8.8,35.5,8.8
	c15.7,0,31.3-4.9,44.7-14.6c23.6-17.2,35.2-45.7,30.3-74.5l-30.2-175.9l127.8-124.5C1702.9-2113.9,1710.3-2143.8,1701.3-2171.6z"/>
</svg>
